<mxfile host="app.diagrams.net" agent="Mozilla/5.0 (Windows NT 10.0; Win64; x64) AppleWebKit/537.36 (KHTML, like Gecko) Chrome/128.0.0.0 Safari/537.36" version="24.7.13">
  <diagram name="Page-1" id="4V991Cp5B8nK2peRkqRa">
    <mxGraphModel dx="925" dy="671" grid="0" gridSize="10" guides="1" tooltips="1" connect="1" arrows="1" fold="1" page="1" pageScale="1" pageWidth="850" pageHeight="1100" math="0" shadow="0">
      <root>
        <mxCell id="0" />
        <mxCell id="1" parent="0" />
        <mxCell id="QItG2HqCtzGKJLcNbMxo-20" style="edgeStyle=orthogonalEdgeStyle;rounded=0;orthogonalLoop=1;jettySize=auto;html=1;entryX=0.5;entryY=0;entryDx=0;entryDy=0;" edge="1" parent="1" source="QItG2HqCtzGKJLcNbMxo-1" target="QItG2HqCtzGKJLcNbMxo-2">
          <mxGeometry relative="1" as="geometry" />
        </mxCell>
        <mxCell id="QItG2HqCtzGKJLcNbMxo-1" value="" style="image;sketch=0;aspect=fixed;html=1;points=[];align=center;fontSize=12;image=img/lib/mscae/Key_Vaults.svg;" vertex="1" parent="1">
          <mxGeometry x="302" y="171" width="45.12" height="47" as="geometry" />
        </mxCell>
        <mxCell id="QItG2HqCtzGKJLcNbMxo-2" value="Key Generation" style="shape=rect;strokeWidth=2;fontStyle=1;html=1;whiteSpace=wrap;align=center;" vertex="1" parent="1">
          <mxGeometry x="153" y="242" width="130" height="37" as="geometry" />
        </mxCell>
        <mxCell id="QItG2HqCtzGKJLcNbMxo-3" value="" style="align=left;html=1;verticalAlign=middle;labelPosition=right;verticalLabelPosition=middle;labelBackgroundColor=none;fontSize=10" connectable="0" vertex="1" parent="QItG2HqCtzGKJLcNbMxo-2">
          <mxGeometry x="130" y="18.5" as="geometry" />
        </mxCell>
        <mxCell id="QItG2HqCtzGKJLcNbMxo-4" value="" style="shape=flexArrow;endArrow=classic;html=1;rounded=0;width=10;endSize=5.67;" edge="1" parent="1">
          <mxGeometry width="50" height="50" relative="1" as="geometry">
            <mxPoint x="217.5" y="295" as="sourcePoint" />
            <mxPoint x="218" y="349" as="targetPoint" />
            <Array as="points">
              <mxPoint x="217.5" y="326" />
            </Array>
          </mxGeometry>
        </mxCell>
        <mxCell id="QItG2HqCtzGKJLcNbMxo-5" value="Key Storage" style="shape=rect;strokeWidth=2;fontStyle=1;html=1;whiteSpace=wrap;align=center;" vertex="1" parent="1">
          <mxGeometry x="153" y="359" width="130" height="37" as="geometry" />
        </mxCell>
        <mxCell id="QItG2HqCtzGKJLcNbMxo-6" value="" style="align=left;html=1;verticalAlign=middle;labelPosition=right;verticalLabelPosition=middle;labelBackgroundColor=none;fontSize=10" connectable="0" vertex="1" parent="QItG2HqCtzGKJLcNbMxo-5">
          <mxGeometry x="130" y="18.5" as="geometry" />
        </mxCell>
        <mxCell id="QItG2HqCtzGKJLcNbMxo-7" value="Key Distribution" style="shape=rect;strokeWidth=2;fontStyle=1;html=1;whiteSpace=wrap;align=center;" vertex="1" parent="1">
          <mxGeometry x="158" y="468" width="130" height="37" as="geometry" />
        </mxCell>
        <mxCell id="QItG2HqCtzGKJLcNbMxo-8" value="" style="align=left;html=1;verticalAlign=middle;labelPosition=right;verticalLabelPosition=middle;labelBackgroundColor=none;fontSize=10" connectable="0" vertex="1" parent="QItG2HqCtzGKJLcNbMxo-7">
          <mxGeometry x="130" y="18.5" as="geometry" />
        </mxCell>
        <mxCell id="QItG2HqCtzGKJLcNbMxo-9" value="" style="shape=flexArrow;endArrow=classic;html=1;rounded=0;width=10;endSize=5.67;" edge="1" parent="1">
          <mxGeometry width="50" height="50" relative="1" as="geometry">
            <mxPoint x="220" y="405" as="sourcePoint" />
            <mxPoint x="220.5" y="459" as="targetPoint" />
            <Array as="points">
              <mxPoint x="220" y="436" />
            </Array>
          </mxGeometry>
        </mxCell>
        <mxCell id="QItG2HqCtzGKJLcNbMxo-10" value="Key Rotation" style="shape=rect;strokeWidth=2;fontStyle=1;html=1;whiteSpace=wrap;align=center;" vertex="1" parent="1">
          <mxGeometry x="369" y="468" width="130" height="37" as="geometry" />
        </mxCell>
        <mxCell id="QItG2HqCtzGKJLcNbMxo-11" value="" style="align=left;html=1;verticalAlign=middle;labelPosition=right;verticalLabelPosition=middle;labelBackgroundColor=none;fontSize=10" connectable="0" vertex="1" parent="QItG2HqCtzGKJLcNbMxo-10">
          <mxGeometry x="130" y="18.5" as="geometry" />
        </mxCell>
        <mxCell id="QItG2HqCtzGKJLcNbMxo-13" value="" style="shape=flexArrow;endArrow=classic;html=1;rounded=0;width=10;endSize=5.67;" edge="1" parent="1">
          <mxGeometry width="50" height="50" relative="1" as="geometry">
            <mxPoint x="296" y="482" as="sourcePoint" />
            <mxPoint x="361" y="482" as="targetPoint" />
            <Array as="points">
              <mxPoint x="296" y="482" />
            </Array>
          </mxGeometry>
        </mxCell>
        <mxCell id="QItG2HqCtzGKJLcNbMxo-14" value="Key Monitoring" style="shape=rect;strokeWidth=2;fontStyle=1;html=1;whiteSpace=wrap;align=center;" vertex="1" parent="1">
          <mxGeometry x="367" y="359" width="130" height="37" as="geometry" />
        </mxCell>
        <mxCell id="QItG2HqCtzGKJLcNbMxo-15" value="" style="align=left;html=1;verticalAlign=middle;labelPosition=right;verticalLabelPosition=middle;labelBackgroundColor=none;fontSize=10" connectable="0" vertex="1" parent="QItG2HqCtzGKJLcNbMxo-14">
          <mxGeometry x="130" y="18.5" as="geometry" />
        </mxCell>
        <mxCell id="QItG2HqCtzGKJLcNbMxo-16" value="" style="shape=flexArrow;endArrow=classic;html=1;rounded=0;width=10;endSize=5.67;" edge="1" parent="1">
          <mxGeometry width="50" height="50" relative="1" as="geometry">
            <mxPoint x="431.5" y="457" as="sourcePoint" />
            <mxPoint x="431.5" y="407" as="targetPoint" />
            <Array as="points" />
          </mxGeometry>
        </mxCell>
        <mxCell id="QItG2HqCtzGKJLcNbMxo-17" value="" style="shape=flexArrow;endArrow=classic;html=1;rounded=0;width=10;endSize=5.67;" edge="1" parent="1">
          <mxGeometry width="50" height="50" relative="1" as="geometry">
            <mxPoint x="433.5" y="349" as="sourcePoint" />
            <mxPoint x="433.5" y="299" as="targetPoint" />
            <Array as="points" />
          </mxGeometry>
        </mxCell>
        <mxCell id="QItG2HqCtzGKJLcNbMxo-18" value="Key Revocation" style="shape=rect;strokeWidth=2;fontStyle=1;html=1;whiteSpace=wrap;align=center;" vertex="1" parent="1">
          <mxGeometry x="369" y="247" width="130" height="37" as="geometry" />
        </mxCell>
        <mxCell id="QItG2HqCtzGKJLcNbMxo-19" value="" style="align=left;html=1;verticalAlign=middle;labelPosition=right;verticalLabelPosition=middle;labelBackgroundColor=none;fontSize=10" connectable="0" vertex="1" parent="QItG2HqCtzGKJLcNbMxo-18">
          <mxGeometry x="130" y="18.5" as="geometry" />
        </mxCell>
        <mxCell id="QItG2HqCtzGKJLcNbMxo-23" style="edgeStyle=orthogonalEdgeStyle;rounded=0;orthogonalLoop=1;jettySize=auto;html=1;entryX=0.997;entryY=0.489;entryDx=0;entryDy=0;entryPerimeter=0;" edge="1" parent="1" source="QItG2HqCtzGKJLcNbMxo-18" target="QItG2HqCtzGKJLcNbMxo-1">
          <mxGeometry relative="1" as="geometry">
            <Array as="points">
              <mxPoint x="441" y="194" />
            </Array>
          </mxGeometry>
        </mxCell>
        <mxCell id="QItG2HqCtzGKJLcNbMxo-26" value="&amp;nbsp; &amp;nbsp; &amp;nbsp; &amp;nbsp; &amp;nbsp; &amp;nbsp; &amp;nbsp; &amp;nbsp;Key Management System (KMS)" style="rounded=1;arcSize=9;fillColor=#F7F8F9;align=left;spacingLeft=5;strokeColor=#DEE1E6;html=1;strokeWidth=2;fontSize=12" vertex="1" parent="1">
          <mxGeometry x="194" y="105" width="290" height="33" as="geometry" />
        </mxCell>
      </root>
    </mxGraphModel>
  </diagram>
</mxfile>
